<mxfile host="app.diagrams.net" agent="Mozilla/5.0 (Macintosh; Intel Mac OS X 10_15_7) AppleWebKit/537.36 (KHTML, like Gecko) Chrome/136.0.0.0 Safari/537.36" version="27.0.6" pages="2">
  <diagram name="用户访问链路" id="A8cSzCeEmLXzz6vHc0UO">
    <mxGraphModel dx="-868" dy="1160" grid="1" gridSize="10" guides="1" tooltips="1" connect="1" arrows="1" fold="1" page="1" pageScale="1" pageWidth="827" pageHeight="1169" math="0" shadow="0">
      <root>
        <mxCell id="0" />
        <mxCell id="1" parent="0" />
        <mxCell id="3InamGHf78_3qM0vHMMI-1" value="Client" style="rounded=0;whiteSpace=wrap;html=1;fillColor=#ffe6cc;strokeColor=#d79b00;labelBackgroundColor=none;labelBorderColor=none;shadow=1;" parent="1" vertex="1">
          <mxGeometry x="1720" y="560" width="80" height="80" as="geometry" />
        </mxCell>
        <mxCell id="3InamGHf78_3qM0vHMMI-2" value="CDN" style="rounded=0;whiteSpace=wrap;html=1;fillColor=#d5e8d4;strokeColor=#82b366;labelBackgroundColor=none;labelBorderColor=none;shadow=1;" parent="1" vertex="1">
          <mxGeometry x="1920" y="560" width="80" height="520" as="geometry" />
        </mxCell>
        <mxCell id="3InamGHf78_3qM0vHMMI-3" value="Load&lt;br&gt;Balancer" style="rounded=0;whiteSpace=wrap;html=1;fillColor=#d5e8d4;strokeColor=#82b366;labelBackgroundColor=none;labelBorderColor=none;shadow=1;" parent="1" vertex="1">
          <mxGeometry x="2020" y="560" width="80" height="250" as="geometry" />
        </mxCell>
        <mxCell id="3InamGHf78_3qM0vHMMI-4" value="Node SSR" style="rounded=0;whiteSpace=wrap;html=1;fillColor=#dae8fc;strokeColor=#6c8ebf;labelBackgroundColor=none;labelBorderColor=none;shadow=1;" parent="1" vertex="1">
          <mxGeometry x="2120" y="560" width="140" height="90" as="geometry" />
        </mxCell>
        <mxCell id="3InamGHf78_3qM0vHMMI-5" value="Nginx" style="rounded=0;whiteSpace=wrap;html=1;fillColor=#d5e8d4;strokeColor=#82b366;labelBackgroundColor=none;labelBorderColor=none;shadow=1;" parent="1" vertex="1">
          <mxGeometry x="2020" y="1010" width="110" height="70" as="geometry" />
        </mxCell>
        <mxCell id="3InamGHf78_3qM0vHMMI-6" value="S3" style="rounded=0;whiteSpace=wrap;html=1;fillColor=#dae8fc;strokeColor=#6c8ebf;labelBackgroundColor=none;labelBorderColor=none;shadow=1;" parent="1" vertex="1">
          <mxGeometry x="2020" y="830" width="240" height="70" as="geometry" />
        </mxCell>
        <mxCell id="3InamGHf78_3qM0vHMMI-7" value="Lambda" style="rounded=0;whiteSpace=wrap;html=1;fillColor=#dae8fc;strokeColor=#6c8ebf;labelBackgroundColor=none;labelBorderColor=none;shadow=1;" parent="1" vertex="1">
          <mxGeometry x="2020" y="920" width="240" height="70" as="geometry" />
        </mxCell>
        <mxCell id="3InamGHf78_3qM0vHMMI-8" value="EC2" style="rounded=0;whiteSpace=wrap;html=1;fillColor=#dae8fc;strokeColor=#6c8ebf;labelBackgroundColor=none;labelBorderColor=none;shadow=1;" parent="1" vertex="1">
          <mxGeometry x="2150" y="1010" width="110" height="70" as="geometry" />
        </mxCell>
        <mxCell id="3InamGHf78_3qM0vHMMI-9" value="Web Gateway" style="rounded=0;whiteSpace=wrap;html=1;fillColor=#d5e8d4;strokeColor=#82b366;labelBackgroundColor=none;labelBorderColor=none;shadow=1;" parent="1" vertex="1">
          <mxGeometry x="2120" y="670" width="460" height="60" as="geometry" />
        </mxCell>
        <mxCell id="3InamGHf78_3qM0vHMMI-10" value="Data Gateway" style="rounded=0;whiteSpace=wrap;html=1;fillColor=#d5e8d4;strokeColor=#82b366;labelBackgroundColor=none;labelBorderColor=none;shadow=1;" parent="1" vertex="1">
          <mxGeometry x="2120" y="750" width="460" height="57.5" as="geometry" />
        </mxCell>
        <mxCell id="3InamGHf78_3qM0vHMMI-11" value="Load Balancer&lt;br&gt;For Node" style="rounded=0;whiteSpace=wrap;html=1;fillColor=#d5e8d4;strokeColor=#82b366;labelBackgroundColor=none;labelBorderColor=none;shadow=1;" parent="1" vertex="1">
          <mxGeometry x="2280" y="560" width="140" height="90" as="geometry" />
        </mxCell>
        <mxCell id="3InamGHf78_3qM0vHMMI-12" value="Web Gateway&lt;br&gt;For Node" style="rounded=0;whiteSpace=wrap;html=1;fillColor=#d5e8d4;strokeColor=#82b366;labelBackgroundColor=none;labelBorderColor=none;shadow=1;" parent="1" vertex="1">
          <mxGeometry x="2440" y="560" width="140" height="90" as="geometry" />
        </mxCell>
        <mxCell id="3InamGHf78_3qM0vHMMI-13" value="Java Service" style="rounded=0;whiteSpace=wrap;html=1;fillColor=#dae8fc;strokeColor=#6c8ebf;labelBackgroundColor=none;labelBorderColor=none;shadow=1;" parent="1" vertex="1">
          <mxGeometry x="2600" y="560" width="140" height="170" as="geometry" />
        </mxCell>
        <mxCell id="3InamGHf78_3qM0vHMMI-14" value="Cpp Service" style="rounded=0;whiteSpace=wrap;html=1;fillColor=#dae8fc;strokeColor=#6c8ebf;labelBackgroundColor=none;labelBorderColor=none;shadow=1;" parent="1" vertex="1">
          <mxGeometry x="2600" y="750" width="140" height="57.5" as="geometry" />
        </mxCell>
        <mxCell id="3InamGHf78_3qM0vHMMI-15" value="Client" style="rounded=0;whiteSpace=wrap;html=1;fillColor=#ffe6cc;strokeColor=#d79b00;labelBackgroundColor=none;labelBorderColor=none;shadow=1;" parent="1" vertex="1">
          <mxGeometry x="1720" y="660" width="80" height="80" as="geometry" />
        </mxCell>
        <mxCell id="3InamGHf78_3qM0vHMMI-16" value="Client" style="rounded=0;whiteSpace=wrap;html=1;fillColor=#ffe6cc;strokeColor=#d79b00;labelBackgroundColor=none;labelBorderColor=none;shadow=1;" parent="1" vertex="1">
          <mxGeometry x="1720" y="760" width="80" height="80" as="geometry" />
        </mxCell>
        <mxCell id="3InamGHf78_3qM0vHMMI-17" value="Client" style="rounded=0;whiteSpace=wrap;html=1;fillColor=#ffe6cc;strokeColor=#d79b00;labelBackgroundColor=none;labelBorderColor=none;shadow=1;" parent="1" vertex="1">
          <mxGeometry x="1720" y="860" width="80" height="80" as="geometry" />
        </mxCell>
        <mxCell id="3InamGHf78_3qM0vHMMI-18" value="Client" style="rounded=0;whiteSpace=wrap;html=1;fillColor=#ffe6cc;strokeColor=#d79b00;labelBackgroundColor=none;labelBorderColor=none;shadow=1;" parent="1" vertex="1">
          <mxGeometry x="1720" y="960" width="80" height="80" as="geometry" />
        </mxCell>
        <mxCell id="3InamGHf78_3qM0vHMMI-19" value="..." style="rounded=0;whiteSpace=wrap;html=1;fillColor=#ffe6cc;strokeColor=#d79b00;labelBackgroundColor=none;labelBorderColor=none;shadow=1;" parent="1" vertex="1">
          <mxGeometry x="1720" y="1060" width="80" height="20" as="geometry" />
        </mxCell>
        <mxCell id="5E4--wlFpHqgc8M-ZSyI-1" value="DNS" style="rounded=0;whiteSpace=wrap;html=1;fillColor=#fff2cc;strokeColor=#d6b656;labelBackgroundColor=none;labelBorderColor=none;shadow=1;" parent="1" vertex="1">
          <mxGeometry x="1820" y="560" width="80" height="520" as="geometry" />
        </mxCell>
      </root>
    </mxGraphModel>
  </diagram>
  <diagram id="V0VanxjdUBzcPhVSj8UI" name="UTA-2">
    <mxGraphModel dx="1310" dy="1933" grid="1" gridSize="10" guides="1" tooltips="1" connect="1" arrows="1" fold="1" page="1" pageScale="1" pageWidth="827" pageHeight="1169" math="0" shadow="0">
      <root>
        <mxCell id="0" />
        <mxCell id="1" parent="0" />
        <mxCell id="NQ_tfFXzwYJ-sqFzQedk-1" value="&lt;span style=&quot;text-align: left;&quot;&gt;&lt;b&gt;&lt;font style=&quot;font-size: 13px;&quot;&gt;合约可用保证金&amp;nbsp;&lt;/font&gt;&lt;/b&gt;&lt;/span&gt;&lt;span style=&quot;font-size: 13px;&quot;&gt;&lt;b&gt;availableMarginForPerp&lt;/b&gt;&lt;/span&gt;" style="swimlane;fontStyle=0;childLayout=stackLayout;horizontal=1;startSize=30;horizontalStack=0;resizeParent=1;resizeParentMax=0;resizeLast=0;collapsible=1;marginBottom=0;whiteSpace=wrap;html=1;" vertex="1" parent="1">
          <mxGeometry x="910" y="1114" width="280" height="80" as="geometry">
            <mxRectangle x="290" y="260" width="60" height="30" as="alternateBounds" />
          </mxGeometry>
        </mxCell>
        <mxCell id="NQ_tfFXzwYJ-sqFzQedk-2" value="有效保证金 - 占用保证金 - 跨资产合约预留保证" style="text;strokeColor=none;fillColor=none;align=left;verticalAlign=middle;spacingLeft=4;spacingRight=4;overflow=hidden;points=[[0,0.5],[1,0.5]];portConstraint=eastwest;rotatable=0;whiteSpace=wrap;html=1;" vertex="1" parent="NQ_tfFXzwYJ-sqFzQedk-1">
          <mxGeometry y="30" width="280" height="50" as="geometry" />
        </mxCell>
        <mxCell id="NQ_tfFXzwYJ-sqFzQedk-3" value="&lt;span style=&quot;text-align: left;&quot;&gt;有效保证金&amp;nbsp;&lt;/span&gt;&lt;span style=&quot;font-family: &amp;quot;JetBrains Mono&amp;quot;, monospace; font-size: 9pt; background-color: rgb(255, 255, 255); color: rgb(8, 8, 8);&quot;&gt;effectiveMargin&lt;/span&gt;" style="swimlane;fontStyle=0;childLayout=stackLayout;horizontal=1;startSize=30;horizontalStack=0;resizeParent=1;resizeParentMax=0;resizeLast=0;collapsible=1;marginBottom=0;whiteSpace=wrap;html=1;" vertex="1" parent="1">
          <mxGeometry x="500" y="864" width="290" height="70" as="geometry">
            <mxRectangle x="-60" y="240" width="100" height="30" as="alternateBounds" />
          </mxGeometry>
        </mxCell>
        <mxCell id="NQ_tfFXzwYJ-sqFzQedk-4" value="&lt;div&gt;币种全仓权益 * 币种USDT价格 * 币种折算率&lt;/div&gt;" style="text;strokeColor=none;fillColor=none;align=left;verticalAlign=middle;spacingLeft=4;spacingRight=4;overflow=hidden;points=[[0,0.5],[1,0.5]];portConstraint=eastwest;rotatable=0;whiteSpace=wrap;html=1;" vertex="1" parent="NQ_tfFXzwYJ-sqFzQedk-3">
          <mxGeometry y="30" width="290" height="40" as="geometry" />
        </mxCell>
        <mxCell id="NQ_tfFXzwYJ-sqFzQedk-5" value="&lt;span style=&quot;text-align: left;&quot;&gt;（单）占用保证金&amp;nbsp;&lt;/span&gt;&lt;span style=&quot;font-family: &amp;quot;JetBrains Mono&amp;quot;, monospace; font-size: 9pt; background-color: rgb(255, 255, 255); color: rgb(8, 8, 8);&quot;&gt;lockedMargin&lt;/span&gt;" style="swimlane;fontStyle=0;childLayout=stackLayout;horizontal=1;startSize=30;horizontalStack=0;resizeParent=1;resizeParentMax=0;resizeLast=0;collapsible=1;marginBottom=0;whiteSpace=wrap;html=1;" vertex="1" parent="1">
          <mxGeometry x="900" y="664" width="300" height="90" as="geometry" />
        </mxCell>
        <mxCell id="NQ_tfFXzwYJ-sqFzQedk-6" value="&lt;div&gt;全仓挂单占用 + 全仓持仓占用 + 逐仓挂单占用 + 借款占用 + 现货挂单交易损失 + 现货挂单预估手续费&lt;/div&gt;" style="text;strokeColor=none;fillColor=none;align=left;verticalAlign=middle;spacingLeft=4;spacingRight=4;overflow=hidden;points=[[0,0.5],[1,0.5]];portConstraint=eastwest;rotatable=0;whiteSpace=wrap;html=1;" vertex="1" parent="NQ_tfFXzwYJ-sqFzQedk-5">
          <mxGeometry y="30" width="300" height="60" as="geometry" />
        </mxCell>
        <mxCell id="NQ_tfFXzwYJ-sqFzQedk-7" value="&lt;span style=&quot;text-align: left;&quot;&gt;跨资产合约预留保证金&amp;nbsp;&lt;/span&gt;ReservedMarginForPerp" style="swimlane;fontStyle=0;childLayout=stackLayout;horizontal=1;startSize=30;horizontalStack=0;resizeParent=1;resizeParentMax=0;resizeLast=0;collapsible=1;marginBottom=0;whiteSpace=wrap;html=1;" vertex="1" parent="1">
          <mxGeometry x="1350" y="864" width="760" height="140" as="geometry" />
        </mxCell>
        <mxCell id="NQ_tfFXzwYJ-sqFzQedk-8" value="&lt;div&gt;Sum【所有币种的跨资产担保保证金 * 币种USDT价格】* 0.1 +&amp;nbsp;&lt;/div&gt;&lt;div&gt;Max（0，Sum【所有币种的全仓可用权益 * 币种USDT价格 * 币种折算率】- Max（0，结算币种的全仓可用权益 * 币种USDT价格））* 0.1&lt;br&gt;&lt;/div&gt;" style="text;strokeColor=none;fillColor=none;align=left;verticalAlign=middle;spacingLeft=4;spacingRight=4;overflow=hidden;points=[[0,0.5],[1,0.5]];portConstraint=eastwest;rotatable=0;whiteSpace=wrap;html=1;" vertex="1" parent="NQ_tfFXzwYJ-sqFzQedk-7">
          <mxGeometry y="30" width="760" height="70" as="geometry" />
        </mxCell>
        <mxCell id="NQ_tfFXzwYJ-sqFzQedk-9" value="&lt;div&gt;只有正数需要乘以系数&lt;/div&gt;" style="text;strokeColor=none;fillColor=none;align=left;verticalAlign=middle;spacingLeft=4;spacingRight=4;overflow=hidden;points=[[0,0.5],[1,0.5]];portConstraint=eastwest;rotatable=0;whiteSpace=wrap;html=1;" vertex="1" parent="NQ_tfFXzwYJ-sqFzQedk-7">
          <mxGeometry y="100" width="760" height="40" as="geometry" />
        </mxCell>
        <mxCell id="NQ_tfFXzwYJ-sqFzQedk-10" value="&lt;span style=&quot;color: rgb(0, 0, 0); font-family: Helvetica; font-size: 12px; font-style: normal; font-variant-ligatures: normal; font-variant-caps: normal; font-weight: 400; letter-spacing: normal; orphans: 2; text-align: left; text-indent: 0px; text-transform: none; widows: 2; word-spacing: 0px; -webkit-text-stroke-width: 0px; white-space: normal; background-color: rgb(251, 251, 251); text-decoration-thickness: initial; text-decoration-style: initial; text-decoration-color: initial; display: inline !important; float: none;&quot;&gt;全仓挂单占用&lt;/span&gt;" style="rounded=1;whiteSpace=wrap;html=1;" vertex="1" parent="1">
          <mxGeometry x="820" y="40" width="160" height="60" as="geometry" />
        </mxCell>
        <mxCell id="NQ_tfFXzwYJ-sqFzQedk-11" value="&lt;span style=&quot;color: rgb(0, 0, 0); font-family: Helvetica; font-size: 12px; font-style: normal; font-variant-ligatures: normal; font-variant-caps: normal; font-weight: 400; letter-spacing: normal; orphans: 2; text-align: left; text-indent: 0px; text-transform: none; widows: 2; word-spacing: 0px; -webkit-text-stroke-width: 0px; white-space: normal; background-color: rgb(251, 251, 251); text-decoration-thickness: initial; text-decoration-style: initial; text-decoration-color: initial; display: inline !important; float: none;&quot;&gt;全仓持仓占用&lt;/span&gt;" style="rounded=1;whiteSpace=wrap;html=1;" vertex="1" parent="1">
          <mxGeometry x="820" y="90" width="160" height="60" as="geometry" />
        </mxCell>
        <mxCell id="NQ_tfFXzwYJ-sqFzQedk-12" value="&lt;div&gt;&lt;span style=&quot;text-align: left; background-color: initial;&quot;&gt;逐仓挂单占用&lt;/span&gt;&lt;br&gt;&lt;/div&gt;" style="rounded=1;whiteSpace=wrap;html=1;" vertex="1" parent="1">
          <mxGeometry x="820" y="140" width="160" height="60" as="geometry" />
        </mxCell>
        <mxCell id="NQ_tfFXzwYJ-sqFzQedk-13" value="&lt;div&gt;&lt;span style=&quot;text-align: left;&quot;&gt;借款占用&lt;/span&gt;&lt;br&gt;&lt;/div&gt;" style="rounded=1;whiteSpace=wrap;html=1;" vertex="1" parent="1">
          <mxGeometry x="990" y="40" width="160" height="60" as="geometry" />
        </mxCell>
        <mxCell id="NQ_tfFXzwYJ-sqFzQedk-14" value="&lt;div&gt;&lt;span style=&quot;text-align: left;&quot;&gt;现货挂单交易损失&lt;/span&gt;&lt;br&gt;&lt;/div&gt;" style="rounded=1;whiteSpace=wrap;html=1;" vertex="1" parent="1">
          <mxGeometry x="1160" y="40" width="160" height="60" as="geometry" />
        </mxCell>
        <mxCell id="NQ_tfFXzwYJ-sqFzQedk-15" value="&lt;div&gt;&lt;span style=&quot;text-align: left;&quot;&gt;现货挂单预估手续费&lt;/span&gt;&lt;br&gt;&lt;/div&gt;" style="rounded=1;whiteSpace=wrap;html=1;" vertex="1" parent="1">
          <mxGeometry x="1160" y="110" width="160" height="60" as="geometry" />
        </mxCell>
        <mxCell id="NQ_tfFXzwYJ-sqFzQedk-16" value="&lt;span style=&quot;text-align: left;&quot;&gt;权益 equity&lt;/span&gt;" style="swimlane;fontStyle=0;childLayout=stackLayout;horizontal=1;startSize=30;horizontalStack=0;resizeParent=1;resizeParentMax=0;resizeLast=0;collapsible=1;marginBottom=0;whiteSpace=wrap;html=1;" vertex="1" parent="1">
          <mxGeometry x="260" y="434" width="270" height="90" as="geometry" />
        </mxCell>
        <mxCell id="NQ_tfFXzwYJ-sqFzQedk-17" value="&lt;span id=&quot;docs-internal-guid-ebde03c9-7fff-1dc7-ac11-59d686706613&quot;&gt;&lt;span style=&quot;font-size: 11pt; font-family: Arial, sans-serif; background-color: transparent; font-variant-numeric: normal; font-variant-east-asian: normal; font-variant-alternates: normal; font-variant-position: normal; vertical-align: baseline; white-space-collapse: preserve;&quot;&gt;钱包余额 + 全仓未平仓盈亏 + 逐仓未平仓盈亏 - 真实负债 - 未还利息&lt;/span&gt;&lt;/span&gt;" style="text;strokeColor=none;fillColor=none;align=left;verticalAlign=middle;spacingLeft=4;spacingRight=4;overflow=hidden;points=[[0,0.5],[1,0.5]];portConstraint=eastwest;rotatable=0;whiteSpace=wrap;html=1;" vertex="1" parent="NQ_tfFXzwYJ-sqFzQedk-16">
          <mxGeometry y="30" width="270" height="60" as="geometry" />
        </mxCell>
        <mxCell id="NQ_tfFXzwYJ-sqFzQedk-18" value="&lt;span style=&quot;text-align: left;&quot;&gt;逐仓保证金&lt;/span&gt;" style="swimlane;fontStyle=0;childLayout=stackLayout;horizontal=1;startSize=30;horizontalStack=0;resizeParent=1;resizeParentMax=0;resizeLast=0;collapsible=1;marginBottom=0;whiteSpace=wrap;html=1;" vertex="1" parent="1">
          <mxGeometry x="610" y="50" width="140" height="60" as="geometry" />
        </mxCell>
        <mxCell id="NQ_tfFXzwYJ-sqFzQedk-19" value="-" style="text;strokeColor=none;fillColor=none;align=left;verticalAlign=middle;spacingLeft=4;spacingRight=4;overflow=hidden;points=[[0,0.5],[1,0.5]];portConstraint=eastwest;rotatable=0;whiteSpace=wrap;html=1;" vertex="1" parent="NQ_tfFXzwYJ-sqFzQedk-18">
          <mxGeometry y="30" width="140" height="30" as="geometry" />
        </mxCell>
        <mxCell id="NQ_tfFXzwYJ-sqFzQedk-20" value="&lt;span style=&quot;text-align: left;&quot;&gt;逐仓未平仓盈亏&lt;/span&gt;" style="swimlane;fontStyle=0;childLayout=stackLayout;horizontal=1;startSize=30;horizontalStack=0;resizeParent=1;resizeParentMax=0;resizeLast=0;collapsible=1;marginBottom=0;whiteSpace=wrap;html=1;" vertex="1" parent="1">
          <mxGeometry x="610" y="130" width="140" height="60" as="geometry" />
        </mxCell>
        <mxCell id="NQ_tfFXzwYJ-sqFzQedk-21" value="-" style="text;strokeColor=none;fillColor=none;align=left;verticalAlign=middle;spacingLeft=4;spacingRight=4;overflow=hidden;points=[[0,0.5],[1,0.5]];portConstraint=eastwest;rotatable=0;whiteSpace=wrap;html=1;" vertex="1" parent="NQ_tfFXzwYJ-sqFzQedk-20">
          <mxGeometry y="30" width="140" height="30" as="geometry" />
        </mxCell>
        <mxCell id="NQ_tfFXzwYJ-sqFzQedk-22" value="&lt;div&gt;&lt;span style=&quot;text-align: left;&quot;&gt;真实负债&lt;br&gt;&lt;/span&gt;&lt;span id=&quot;docs-internal-guid-ca987349-7fff-c79b-9d45-a30c82a8ef7f&quot;&gt;&lt;span style=&quot;font-size: 11pt; font-family: Arial, sans-serif; background-color: transparent; font-variant-numeric: normal; font-variant-east-asian: normal; font-variant-alternates: normal; font-variant-position: normal; vertical-align: baseline; white-space-collapse: preserve;&quot;&gt;RealDebt&lt;/span&gt;&lt;/span&gt;&lt;br&gt;&lt;/div&gt;" style="rounded=1;whiteSpace=wrap;html=1;" vertex="1" parent="1">
          <mxGeometry x="380" y="50" width="160" height="60" as="geometry" />
        </mxCell>
        <mxCell id="NQ_tfFXzwYJ-sqFzQedk-23" value="&lt;div&gt;&lt;span style=&quot;text-align: left;&quot;&gt;未还利息&lt;/span&gt;&lt;br&gt;&lt;/div&gt;" style="rounded=1;whiteSpace=wrap;html=1;" vertex="1" parent="1">
          <mxGeometry x="380" y="120" width="160" height="60" as="geometry" />
        </mxCell>
        <mxCell id="NQ_tfFXzwYJ-sqFzQedk-24" value="&lt;span style=&quot;text-align: left;&quot;&gt;全仓保证金&lt;/span&gt;" style="swimlane;fontStyle=0;childLayout=stackLayout;horizontal=1;startSize=30;horizontalStack=0;resizeParent=1;resizeParentMax=0;resizeLast=0;collapsible=1;marginBottom=0;whiteSpace=wrap;html=1;" vertex="1" parent="1">
          <mxGeometry x="610" y="220" width="140" height="60" as="geometry" />
        </mxCell>
        <mxCell id="NQ_tfFXzwYJ-sqFzQedk-25" value="-" style="text;strokeColor=none;fillColor=none;align=left;verticalAlign=middle;spacingLeft=4;spacingRight=4;overflow=hidden;points=[[0,0.5],[1,0.5]];portConstraint=eastwest;rotatable=0;whiteSpace=wrap;html=1;" vertex="1" parent="NQ_tfFXzwYJ-sqFzQedk-24">
          <mxGeometry y="30" width="140" height="30" as="geometry" />
        </mxCell>
        <mxCell id="NQ_tfFXzwYJ-sqFzQedk-26" value="&lt;span style=&quot;text-align: left;&quot;&gt;全仓未平仓盈亏&lt;/span&gt;" style="swimlane;fontStyle=0;childLayout=stackLayout;horizontal=1;startSize=30;horizontalStack=0;resizeParent=1;resizeParentMax=0;resizeLast=0;collapsible=1;marginBottom=0;whiteSpace=wrap;html=1;" vertex="1" parent="1">
          <mxGeometry x="610" y="300" width="140" height="60" as="geometry" />
        </mxCell>
        <mxCell id="NQ_tfFXzwYJ-sqFzQedk-27" value="-" style="text;strokeColor=none;fillColor=none;align=left;verticalAlign=middle;spacingLeft=4;spacingRight=4;overflow=hidden;points=[[0,0.5],[1,0.5]];portConstraint=eastwest;rotatable=0;whiteSpace=wrap;html=1;" vertex="1" parent="NQ_tfFXzwYJ-sqFzQedk-26">
          <mxGeometry y="30" width="140" height="30" as="geometry" />
        </mxCell>
        <mxCell id="NQ_tfFXzwYJ-sqFzQedk-28" value="&lt;div&gt;&lt;span style=&quot;text-align: left;&quot;&gt;钱包余额&lt;br&gt;&lt;/span&gt;&lt;span id=&quot;docs-internal-guid-9bbff485-7fff-7f70-41a6-ff45d0217319&quot;&gt;&lt;span style=&quot;font-size: 11pt; font-family: Arial, sans-serif; background-color: transparent; font-variant-numeric: normal; font-variant-east-asian: normal; font-variant-alternates: normal; font-variant-position: normal; vertical-align: baseline; white-space-collapse: preserve;&quot;&gt;WalletBalance&lt;/span&gt;&lt;/span&gt;&lt;br&gt;&lt;/div&gt;" style="rounded=1;whiteSpace=wrap;html=1;" vertex="1" parent="1">
          <mxGeometry x="40" y="274" width="160" height="60" as="geometry" />
        </mxCell>
        <mxCell id="NQ_tfFXzwYJ-sqFzQedk-29" value="&lt;span style=&quot;text-align: left;&quot;&gt;跨资产担保保证金&amp;nbsp;&lt;/span&gt;&lt;span style=&quot;font-family: &amp;quot;JetBrains Mono&amp;quot;, monospace; font-size: 9pt; background-color: rgb(255, 255, 255); color: rgb(8, 8, 8);&quot;&gt;LockedMarginBackedByOtherAssets&lt;/span&gt;" style="swimlane;fontStyle=0;childLayout=stackLayout;horizontal=1;startSize=30;horizontalStack=0;resizeParent=1;resizeParentMax=0;resizeLast=0;collapsible=1;marginBottom=0;whiteSpace=wrap;html=1;" vertex="1" parent="1">
          <mxGeometry x="1400" y="274" width="450" height="110" as="geometry" />
        </mxCell>
        <mxCell id="NQ_tfFXzwYJ-sqFzQedk-30" value="Max（全仓挂单占用 + 逐仓保证金 + 逐仓挂单占用 - 钱包可用余额 - 全仓浮盈，0）" style="text;strokeColor=none;fillColor=none;align=left;verticalAlign=middle;spacingLeft=4;spacingRight=4;overflow=hidden;points=[[0,0.5],[1,0.5]];portConstraint=eastwest;rotatable=0;whiteSpace=wrap;html=1;" vertex="1" parent="NQ_tfFXzwYJ-sqFzQedk-29">
          <mxGeometry y="30" width="450" height="80" as="geometry" />
        </mxCell>
        <mxCell id="NQ_tfFXzwYJ-sqFzQedk-31" value="&lt;span style=&quot;text-align: left;&quot;&gt;全仓可用权益&amp;nbsp;&lt;/span&gt;&lt;span style=&quot;font-family: &amp;quot;JetBrains Mono&amp;quot;, monospace; font-size: 9pt; background-color: rgb(255, 255, 255); color: rgb(8, 8, 8);&quot;&gt;AvailableEquity&lt;/span&gt;" style="swimlane;fontStyle=0;childLayout=stackLayout;horizontal=1;startSize=30;horizontalStack=0;resizeParent=1;resizeParentMax=0;resizeLast=0;collapsible=1;marginBottom=0;whiteSpace=wrap;html=1;" vertex="1" parent="1">
          <mxGeometry x="1400" y="594" width="240" height="60" as="geometry" />
        </mxCell>
        <mxCell id="NQ_tfFXzwYJ-sqFzQedk-32" value="全仓权益 - 余额占用 - 保证金占用" style="text;strokeColor=none;fillColor=none;align=left;verticalAlign=middle;spacingLeft=4;spacingRight=4;overflow=hidden;points=[[0,0.5],[1,0.5]];portConstraint=eastwest;rotatable=0;whiteSpace=wrap;html=1;" vertex="1" parent="NQ_tfFXzwYJ-sqFzQedk-31">
          <mxGeometry y="30" width="240" height="30" as="geometry" />
        </mxCell>
        <mxCell id="NQ_tfFXzwYJ-sqFzQedk-33" value="&lt;span style=&quot;text-align: left;&quot;&gt;全仓权益&amp;nbsp;&lt;/span&gt;&lt;span id=&quot;docs-internal-guid-6efe46fb-7fff-cfc1-2f91-9d7f167bdc82&quot;&gt;&lt;span style=&quot;font-size: 11pt; font-family: Arial, sans-serif; background-color: transparent; font-variant-numeric: normal; font-variant-east-asian: normal; font-variant-alternates: normal; font-variant-position: normal; vertical-align: baseline; white-space-collapse: preserve;&quot;&gt;SharedEquity&lt;/span&gt;&lt;/span&gt;" style="swimlane;fontStyle=0;childLayout=stackLayout;horizontal=1;startSize=30;horizontalStack=0;resizeParent=1;resizeParentMax=0;resizeLast=0;collapsible=1;marginBottom=0;whiteSpace=wrap;html=1;" vertex="1" parent="1">
          <mxGeometry x="819" y="434" width="310" height="120" as="geometry" />
        </mxCell>
        <mxCell id="NQ_tfFXzwYJ-sqFzQedk-34" value="&lt;span id=&quot;docs-internal-guid-8330c4ed-7fff-1668-7055-0fd71e99c6b8&quot;&gt;&lt;span style=&quot;font-family: Arial, sans-serif; background-color: transparent; font-variant-numeric: normal; font-variant-east-asian: normal; font-variant-alternates: normal; font-variant-position: normal; vertical-align: baseline; white-space-collapse: preserve;&quot;&gt;&lt;font style=&quot;font-size: 12px;&quot;&gt;钱包余额 + 全仓未平仓盈亏 - 逐仓保证金 - 真实负债 - 未还利息&lt;br/&gt;&lt;/font&gt;&lt;/span&gt;&lt;/span&gt;" style="text;strokeColor=none;fillColor=none;align=left;verticalAlign=middle;spacingLeft=4;spacingRight=4;overflow=hidden;points=[[0,0.5],[1,0.5]];portConstraint=eastwest;rotatable=0;whiteSpace=wrap;html=1;" vertex="1" parent="NQ_tfFXzwYJ-sqFzQedk-33">
          <mxGeometry y="30" width="310" height="50" as="geometry" />
        </mxCell>
        <mxCell id="NQ_tfFXzwYJ-sqFzQedk-35" value="&lt;span style=&quot;font-family: Arial, sans-serif; white-space-collapse: preserve;&quot;&gt;权益 - 逐仓保证金 - 逐仓未平仓盈亏&lt;/span&gt;" style="text;strokeColor=none;fillColor=none;align=left;verticalAlign=middle;spacingLeft=4;spacingRight=4;overflow=hidden;points=[[0,0.5],[1,0.5]];portConstraint=eastwest;rotatable=0;whiteSpace=wrap;html=1;fontStyle=0" vertex="1" parent="NQ_tfFXzwYJ-sqFzQedk-33">
          <mxGeometry y="80" width="310" height="40" as="geometry" />
        </mxCell>
        <mxCell id="NQ_tfFXzwYJ-sqFzQedk-36" value="&lt;span style=&quot;text-align: left;&quot;&gt;余额占用&amp;nbsp;&lt;/span&gt;&lt;span id=&quot;docs-internal-guid-4d6ba8cf-7fff-fb5d-45ef-94e92bc38878&quot;&gt;&lt;span style=&quot;font-size: 11pt; font-family: Arial, sans-serif; background-color: transparent; font-variant-numeric: normal; font-variant-east-asian: normal; font-variant-alternates: normal; font-variant-position: normal; vertical-align: baseline; white-space-collapse: preserve;&quot;&gt;LockedBalance&lt;/span&gt;&lt;/span&gt;" style="swimlane;fontStyle=0;childLayout=stackLayout;horizontal=1;startSize=30;horizontalStack=0;resizeParent=1;resizeParentMax=0;resizeLast=0;collapsible=1;marginBottom=0;whiteSpace=wrap;html=1;" vertex="1" parent="1">
          <mxGeometry x="1370" y="40" width="210" height="60" as="geometry" />
        </mxCell>
        <mxCell id="NQ_tfFXzwYJ-sqFzQedk-37" value="现货挂单占用" style="text;strokeColor=none;fillColor=none;align=left;verticalAlign=middle;spacingLeft=4;spacingRight=4;overflow=hidden;points=[[0,0.5],[1,0.5]];portConstraint=eastwest;rotatable=0;whiteSpace=wrap;html=1;" vertex="1" parent="NQ_tfFXzwYJ-sqFzQedk-36">
          <mxGeometry y="30" width="210" height="30" as="geometry" />
        </mxCell>
        <mxCell id="NQ_tfFXzwYJ-sqFzQedk-38" value="&lt;div style=&quot;text-align: left;&quot;&gt;钱包可用余额&amp;nbsp;&lt;span style=&quot;background-color: rgb(255, 255, 255); color: rgb(8, 8, 8); font-family: &amp;quot;JetBrains Mono&amp;quot;, monospace; font-size: 9pt; text-align: center;&quot;&gt;AvailableBalance&lt;/span&gt;&lt;/div&gt;" style="swimlane;fontStyle=0;childLayout=stackLayout;horizontal=1;startSize=30;horizontalStack=0;resizeParent=1;resizeParentMax=0;resizeLast=0;collapsible=1;marginBottom=0;whiteSpace=wrap;html=1;" vertex="1" parent="1">
          <mxGeometry x="260" y="274" width="270" height="80" as="geometry" />
        </mxCell>
        <mxCell id="NQ_tfFXzwYJ-sqFzQedk-39" value="&lt;span id=&quot;docs-internal-guid-ebde03c9-7fff-1dc7-ac11-59d686706613&quot;&gt;&lt;span style=&quot;font-size: 11pt; font-family: Arial, sans-serif; background-color: transparent; font-variant-numeric: normal; font-variant-east-asian: normal; font-variant-alternates: normal; font-variant-position: normal; vertical-align: baseline; white-space-collapse: preserve;&quot;&gt;Max（0，钱包余额 - 余额占用）&lt;/span&gt;&lt;/span&gt;" style="text;strokeColor=none;fillColor=none;align=left;verticalAlign=middle;spacingLeft=4;spacingRight=4;overflow=hidden;points=[[0,0.5],[1,0.5]];portConstraint=eastwest;rotatable=0;whiteSpace=wrap;html=1;" vertex="1" parent="NQ_tfFXzwYJ-sqFzQedk-38">
          <mxGeometry y="30" width="270" height="50" as="geometry" />
        </mxCell>
        <mxCell id="NQ_tfFXzwYJ-sqFzQedk-40" value="&lt;span style=&quot;text-align: left;&quot;&gt;（总）占用保证金&amp;nbsp;&lt;/span&gt;&lt;span style=&quot;font-family: &amp;quot;JetBrains Mono&amp;quot;, monospace; font-size: 9pt; background-color: rgb(255, 255, 255); color: rgb(8, 8, 8);&quot;&gt;lockedMargin&lt;/span&gt;" style="swimlane;fontStyle=0;childLayout=stackLayout;horizontal=1;startSize=30;horizontalStack=0;resizeParent=1;resizeParentMax=0;resizeLast=0;collapsible=1;marginBottom=0;whiteSpace=wrap;html=1;" vertex="1" parent="1">
          <mxGeometry x="900" y="864" width="300" height="90" as="geometry" />
        </mxCell>
        <mxCell id="NQ_tfFXzwYJ-sqFzQedk-41" value="币种的占用保证金 * 币种的USDT价格" style="text;strokeColor=none;fillColor=none;align=left;verticalAlign=middle;spacingLeft=4;spacingRight=4;overflow=hidden;points=[[0,0.5],[1,0.5]];portConstraint=eastwest;rotatable=0;whiteSpace=wrap;html=1;" vertex="1" parent="NQ_tfFXzwYJ-sqFzQedk-40">
          <mxGeometry y="30" width="300" height="60" as="geometry" />
        </mxCell>
      </root>
    </mxGraphModel>
  </diagram>
</mxfile>
